<?xml version="1.0" standalone="no"?>
<!DOCTYPE svg PUBLIC "-//W3C//DTD SVG 20010904//EN"
 "http://www.w3.org/TR/2001/REC-SVG-20010904/DTD/svg10.dtd">
<svg version="1.0" xmlns="http://www.w3.org/2000/svg"
 width="2560.000000pt" height="2560.000000pt" viewBox="0 0 2560.000000 2560.000000"
 preserveAspectRatio="xMidYMid meet">

<g transform="translate(0.000000,2560.000000) scale(0.100000,-0.100000)"
fill="#000000" stroke="none">
<path d="M0 12800 l0 -12800 12800 0 12800 0 0 12800 0 12800 -12800 0 -12800
0 0 -12800z m7345 5850 c329 -14 826 -62 1035 -99 30 -6 123 -22 205 -36 175
-31 538 -110 635 -139 25 -8 81 -24 125 -36 145 -40 418 -127 540 -173 349
-132 754 -321 990 -464 11 -6 56 -33 100 -59 73 -43 176 -110 295 -191 484
-332 969 -803 1311 -1273 502 -691 840 -1539 950 -2385 34 -266 39 -352 49
-795 14 -653 45 -1103 100 -1455 5 -33 19 -121 30 -195 40 -253 124 -628 195
-860 157 -518 381 -996 634 -1351 91 -128 91 -127 170 -224 230 -278 464 -490
766 -692 422 -282 982 -500 1560 -608 77 -14 160 -30 185 -35 117 -23 237 -39
515 -69 668 -73 1825 -93 2326 -41 52 5 182 14 289 20 536 29 782 75 968 182
74 42 222 186 275 267 117 177 211 435 262 718 47 264 54 313 87 698 l22 250
3 4303 4 4302 -1753 0 c-1962 0 -1976 -1 -2603 -65 -138 -15 -387 -54 -625
-100 -291 -56 -659 -164 -940 -275 -250 -99 -639 -308 -805 -433 -24 -18 -55
-41 -71 -52 -156 -112 -410 -347 -530 -490 -33 -38 -62 -72 -65 -75 -14 -13
-162 -215 -216 -295 -106 -159 -230 -391 -322 -606 -28 -63 -53 -113 -58 -113
-10 2 -39 56 -283 529 -45 88 -91 172 -101 187 -11 14 -19 30 -19 36 0 5 -12
31 -26 58 -42 78 -154 302 -154 308 0 4 -11 29 -25 58 -14 28 -25 57 -25 63 0
6 64 67 143 135 186 162 174 152 312 256 419 316 865 560 1469 804 91 37 457
159 567 190 311 86 524 135 819 189 146 26 241 40 565 81 162 21 417 40 670
50 177 8 1217 10 3270 8 3250 -4 3049 0 3158 -53 48 -23 72 -68 63 -118 -9
-47 -58 -90 -182 -160 -166 -93 -294 -187 -355 -260 -132 -157 -228 -433 -283
-808 -53 -357 -50 -115 -54 -4134 -3 -3636 0 -4100 28 -4385 44 -446 133 -738
298 -975 63 -91 186 -221 282 -300 70 -58 292 -201 433 -280 120 -68 159 -105
155 -147 -3 -28 -9 -35 -43 -46 -50 -17 -305 -11 -505 12 -269 31 -616 39
-1935 43 -1265 5 -1957 -3 -2490 -27 -363 -17 -1243 -23 -1525 -11 -733 31
-1382 119 -1975 267 -810 202 -1484 501 -2104 933 -188 130 -206 143 -211 150
-3 3 -57 47 -120 96 -240 186 -527 452 -701 650 -24 28 -46 52 -49 55 -51 51
-238 292 -350 453 -398 572 -714 1297 -870 1992 -43 193 -51 233 -79 404 -58
347 -77 576 -91 1089 -17 618 -50 1067 -100 1362 -5 30 -19 113 -30 184 -77
472 -247 1012 -440 1396 -99 197 -261 457 -368 589 -24 31 -59 74 -76 95 -53
66 -117 137 -216 237 -633 639 -1567 1034 -2790 1179 -573 67 -689 70 -2665
68 l-1740 -3 0 -4255 c0 -3991 1 -4270 18 -4500 31 -430 67 -699 128 -950 103
-433 273 -705 522 -836 197 -104 430 -146 942 -174 105 -5 237 -14 295 -20
527 -50 1639 -33 2300 36 707 73 1286 208 1729 403 347 153 614 318 926 571
65 53 375 369 431 440 92 117 100 129 172 230 214 299 412 693 554 1099 18 52
37 94 42 93 5 0 23 -27 41 -59 92 -170 148 -274 176 -323 89 -159 105 -189
126 -230 12 -25 40 -76 63 -115 22 -38 48 -88 58 -109 17 -41 90 -185 203
-404 l63 -122 -35 -36 c-154 -163 -521 -475 -764 -651 -535 -387 -1132 -685
-1775 -886 -456 -143 -1045 -270 -1445 -312 -33 -3 -85 -10 -115 -15 -84 -14
-330 -38 -585 -57 -185 -14 -356 -17 -880 -17 -357 0 -767 5 -910 12 -607 27
-1201 34 -2530 29 -1379 -5 -1625 -11 -2000 -47 -252 -25 -424 -26 -471 -4
-28 14 -34 22 -34 48 0 44 14 55 252 196 235 141 355 228 468 342 301 303 425
665 472 1383 19 292 19 7573 0 7845 -51 733 -165 1118 -391 1321 -33 30 -122
92 -198 138 -217 132 -242 150 -263 184 -23 37 -25 65 -8 102 22 48 102 80
239 95 111 11 6021 11 6294 0z"/>
</g>
</svg>
